<svg width="150" height="150" viewBox="0 0 150 150" fill="none" xmlns="http://www.w3.org/2000/svg">
<path d="M75 147.5C115.041 147.5 147.5 115.041 147.5 75C147.5 34.9594 115.041 2.5 75 2.5C34.9594 2.5 2.5 34.9594 2.5 75C2.5 115.041 34.9594 147.5 75 147.5Z" fill="#BF2518"/>
<mask id="mask0_356_398" style="mask-type:alpha" maskUnits="userSpaceOnUse" x="2" y="3" width="146" height="146">
<path d="M75 148.5C115.041 148.5 147.5 116.041 147.5 76C147.5 35.9594 115.041 3.5 75 3.5C34.9594 3.5 2.5 35.9594 2.5 76C2.5 116.041 34.9594 148.5 75 148.5Z" fill="#BF2518"/>
</mask>
<g mask="url(#mask0_356_398)">
<path d="M13.6852 65.1424C10.2756 67.9524 9.44339 73.2464 11.8264 76.9669C14.2094 80.6875 18.9053 81.4256 22.3148 78.6157L13.6852 65.1424ZM22.3148 78.6157L84.0507 27.7366L75.4211 14.2634L13.6852 65.1424L22.3148 78.6157Z" fill="white"/>
<path d="M128.421 78.6157C131.831 81.4256 136.526 80.6875 138.91 76.9669C141.293 73.2464 140.46 67.9524 137.051 65.1424L128.421 78.6157ZM66.6852 27.7366L128.421 78.6157L137.051 65.1424L75.3148 14.2634L66.6852 27.7366Z" fill="white"/>
<path d="M26 35V116H42.5L52 84.6268L61.5 116H78V35H63V86.9085L57 61.2394H47L41 86.9085V35H26Z" fill="white"/>
<path d="M123 122L123 56H109.356L101.5 81.5634L93.6442 56H80V122H92.4038V79.7042L97.3654 100.62H105.635L110.596 79.7042V122H123Z" fill="white"/>
</g>
</svg>
