<svg width="864" height="667" viewBox="0 0 864 667" fill="none" xmlns="http://www.w3.org/2000/svg">
<g clip-path="url(#clip0_340_119)">
<path d="M648 166.75L864 0H648V166.75Z" stroke="#DFDFDF" stroke-opacity="0.05" stroke-width="2" stroke-linejoin="round"/>
<path d="M540 0V83.375H648L540 0Z" stroke="#DFDFDF" stroke-opacity="0.05" stroke-width="2" stroke-linejoin="round"/>
<path d="M432 0L540 83.375H432V0Z" stroke="#DFDFDF" stroke-opacity="0.05" stroke-width="2" stroke-linejoin="round"/>
<path d="M540 83.375H432V166.75L540 83.375Z" stroke="#DFDFDF" stroke-opacity="0.05" stroke-width="2" stroke-linejoin="round"/>
<path d="M648 166.75H540L648 83.375V166.75Z" stroke="#DFDFDF" stroke-opacity="0.05" stroke-width="2" stroke-linejoin="round"/>
<path d="M648 166.75H540L648 250.125V166.75Z" stroke="#DFDFDF" stroke-opacity="0.05" stroke-width="2" stroke-linejoin="round"/>
<path d="M540 250.125V166.75H432L540 250.125Z" stroke="#DFDFDF" stroke-opacity="0.05" stroke-width="2" stroke-linejoin="round"/>
<path d="M540 250.125L486 291.813V250.125H540Z" stroke="#DFDFDF" stroke-opacity="0.05" stroke-width="2" stroke-linejoin="round"/>
<path d="M432 250.125L486 291.813V250.125H432Z" stroke="#DFDFDF" stroke-opacity="0.05" stroke-width="2" stroke-linejoin="round"/>
<path d="M432 333.5V291.812L486 333.5H432Z" stroke="#DFDFDF" stroke-opacity="0.05" stroke-width="2" stroke-linejoin="round"/>
<path d="M486 291.812H540V333.5L486 291.812Z" stroke="#DFDFDF" stroke-opacity="0.05" stroke-width="2" stroke-linejoin="round"/>
<path d="M648 250.125V291.813H594L648 250.125Z" stroke="#DFDFDF" stroke-opacity="0.05" stroke-width="2" stroke-linejoin="round"/>
<path d="M594 291.813V250.125H540L594 291.813Z" stroke="#DFDFDF" stroke-opacity="0.05" stroke-width="2" stroke-linejoin="round"/>
<path d="M540 291.812L594 333.5H540V291.812Z" stroke="#DFDFDF" stroke-opacity="0.05" stroke-width="2" stroke-linejoin="round"/>
<path d="M648 291.812L594 333.5H648V291.812Z" stroke="#DFDFDF" stroke-opacity="0.05" stroke-width="2" stroke-linejoin="round"/>
<path d="M756 250.125H864L756 166.75V250.125Z" stroke="#DFDFDF" stroke-opacity="0.05" stroke-width="2" stroke-linejoin="round"/>
<path d="M648 166.75H756L648 250.125V166.75Z" stroke="#DFDFDF" stroke-opacity="0.05" stroke-width="2" stroke-linejoin="round"/>
<path d="M756 333.5V250.125L648 333.5H756Z" stroke="#DFDFDF" stroke-opacity="0.05" stroke-width="2" stroke-linejoin="round"/>
<path d="M864 250.125V333.5L756 250.125H864Z" stroke="#DFDFDF" stroke-opacity="0.05" stroke-width="2" stroke-linejoin="round"/>
<path d="M432 0V83.375H324L432 0Z" stroke="#DFDFDF" stroke-opacity="0.05" stroke-width="2" stroke-linejoin="round"/>
<path d="M324 83.375V0H216L324 83.375Z" stroke="#DFDFDF" stroke-opacity="0.05" stroke-width="2" stroke-linejoin="round"/>
<path d="M324 83.375V166.75H216L324 83.375Z" stroke="#DFDFDF" stroke-opacity="0.05" stroke-width="2" stroke-linejoin="round"/>
<path d="M432 166.75L324 83.375H432V166.75Z" stroke="#DFDFDF" stroke-opacity="0.05" stroke-width="2" stroke-linejoin="round"/>
<path d="M216 0L108 83.375H216V0Z" stroke="#DFDFDF" stroke-opacity="0.05" stroke-width="2" stroke-linejoin="round"/>
<path d="M0 0H108L0 83.375V0Z" stroke="#DFDFDF" stroke-opacity="0.05" stroke-width="2" stroke-linejoin="round"/>
<path d="M108 166.75L0 83.375H108V166.75Z" stroke="#DFDFDF" stroke-opacity="0.05" stroke-width="2" stroke-linejoin="round"/>
<path d="M216 83.375H108L216 166.75V83.375Z" stroke="#DFDFDF" stroke-opacity="0.05" stroke-width="2" stroke-linejoin="round"/>
<path d="M216 250.125L108 166.75V250.125H216Z" stroke="#DFDFDF" stroke-opacity="0.05" stroke-width="2" stroke-linejoin="round"/>
<path d="M0 166.75H108V250.125L0 166.75Z" stroke="#DFDFDF" stroke-opacity="0.05" stroke-width="2" stroke-linejoin="round"/>
<path d="M0 250.125L108 333.5H0V250.125Z" stroke="#DFDFDF" stroke-opacity="0.05" stroke-width="2" stroke-linejoin="round"/>
<path d="M108 250.125H216L108 333.5V250.125Z" stroke="#DFDFDF" stroke-opacity="0.05" stroke-width="2" stroke-linejoin="round"/>
<path d="M324 166.75H432L324 250.125V166.75Z" stroke="#DFDFDF" stroke-opacity="0.05" stroke-width="2" stroke-linejoin="round"/>
<path d="M270 166.75H324L270 208.438V166.75Z" stroke="#DFDFDF" stroke-opacity="0.05" stroke-width="2" stroke-linejoin="round"/>
<path d="M270 208.438H216L270 166.75V208.438Z" stroke="#DFDFDF" stroke-opacity="0.05" stroke-width="2" stroke-linejoin="round"/>
<path d="M216 250.125L270 208.438V250.125H216Z" stroke="#DFDFDF" stroke-opacity="0.05" stroke-width="2" stroke-linejoin="round"/>
<path d="M324 250.125V208.438H270L324 250.125Z" stroke="#DFDFDF" stroke-opacity="0.05" stroke-width="2" stroke-linejoin="round"/>
<path d="M324 291.813V250.125H270L324 291.813Z" stroke="#DFDFDF" stroke-opacity="0.05" stroke-width="2" stroke-linejoin="round"/>
<path d="M270 250.125L216 291.813H270V250.125Z" stroke="#DFDFDF" stroke-opacity="0.05" stroke-width="2" stroke-linejoin="round"/>
<path d="M270 333.5V291.812L216 333.5H270Z" stroke="#DFDFDF" stroke-opacity="0.05" stroke-width="2" stroke-linejoin="round"/>
<path d="M270 333.5L324 291.812H270V333.5Z" stroke="#DFDFDF" stroke-opacity="0.05" stroke-width="2" stroke-linejoin="round"/>
<path d="M432 291.813V250.125L378 291.813H432Z" stroke="#DFDFDF" stroke-opacity="0.05" stroke-width="2" stroke-linejoin="round"/>
<path d="M378 291.813V250.125L324 291.813H378Z" stroke="#DFDFDF" stroke-opacity="0.05" stroke-width="2" stroke-linejoin="round"/>
<path d="M378 333.5V291.812L324 333.5H378Z" stroke="#DFDFDF" stroke-opacity="0.05" stroke-width="2" stroke-linejoin="round"/>
<path d="M432 291.812L378 333.5V291.812H432Z" stroke="#DFDFDF" stroke-opacity="0.05" stroke-width="2" stroke-linejoin="round"/>
<path d="M432 333.5H324V416.875L432 333.5Z" stroke="#DFDFDF" stroke-opacity="0.05" stroke-width="2" stroke-linejoin="round"/>
<path d="M324 333.5V416.875H216L324 333.5Z" stroke="#DFDFDF" stroke-opacity="0.05" stroke-width="2" stroke-linejoin="round"/>
<path d="M324 416.875V500.25H216L324 416.875Z" stroke="#DFDFDF" stroke-opacity="0.05" stroke-width="2" stroke-linejoin="round"/>
<path d="M432 458.563V416.875L378 458.563H432Z" stroke="#DFDFDF" stroke-opacity="0.05" stroke-width="2" stroke-linejoin="round"/>
<path d="M324 416.875H378V458.563L324 416.875Z" stroke="#DFDFDF" stroke-opacity="0.05" stroke-width="2" stroke-linejoin="round"/>
<path d="M324 458.562L378 500.25H324V458.562Z" stroke="#DFDFDF" stroke-opacity="0.05" stroke-width="2" stroke-linejoin="round"/>
<path d="M432 500.25H378L432 458.562V500.25Z" stroke="#DFDFDF" stroke-opacity="0.05" stroke-width="2" stroke-linejoin="round"/>
<path d="M216 416.875V333.5H108L216 416.875Z" stroke="#DFDFDF" stroke-opacity="0.05" stroke-width="2" stroke-linejoin="round"/>
<path d="M0 416.875H108L0 333.5V416.875Z" stroke="#DFDFDF" stroke-opacity="0.05" stroke-width="2" stroke-linejoin="round"/>
<path d="M0 416.875V500.25L108 416.875H0Z" stroke="#DFDFDF" stroke-opacity="0.05" stroke-width="2" stroke-linejoin="round"/>
<path d="M108 500.25L216 416.875H108V500.25Z" stroke="#DFDFDF" stroke-opacity="0.05" stroke-width="2" stroke-linejoin="round"/>
<path d="M216 500.25V583.625L108 500.25H216Z" stroke="#DFDFDF" stroke-opacity="0.05" stroke-width="2" stroke-linejoin="round"/>
<path d="M108 500.25V583.625H0L108 500.25Z" stroke="#DFDFDF" stroke-opacity="0.05" stroke-width="2" stroke-linejoin="round"/>
<path d="M108 667H0L108 583.625V667Z" stroke="#DFDFDF" stroke-opacity="0.05" stroke-width="2" stroke-linejoin="round"/>
<path d="M216 667L108 583.625H216V667Z" stroke="#DFDFDF" stroke-opacity="0.05" stroke-width="2" stroke-linejoin="round"/>
<path d="M324 583.625L432 500.25V583.625H324Z" stroke="#DFDFDF" stroke-opacity="0.05" stroke-width="2" stroke-linejoin="round"/>
<path d="M324 500.25H216V583.625L324 500.25Z" stroke="#DFDFDF" stroke-opacity="0.05" stroke-width="2" stroke-linejoin="round"/>
<path d="M216 583.625H324L216 667V583.625Z" stroke="#DFDFDF" stroke-opacity="0.05" stroke-width="2" stroke-linejoin="round"/>
<path d="M324 583.625H432V667L324 583.625Z" stroke="#DFDFDF" stroke-opacity="0.05" stroke-width="2" stroke-linejoin="round"/>
<path d="M864 416.875H756V333.5L864 416.875Z" stroke="#DFDFDF" stroke-opacity="0.05" stroke-width="2" stroke-linejoin="round"/>
<path d="M756 333.5V416.875L648 333.5H756Z" stroke="#DFDFDF" stroke-opacity="0.05" stroke-width="2" stroke-linejoin="round"/>
<path d="M648 500.25V416.875H756L648 500.25Z" stroke="#DFDFDF" stroke-opacity="0.05" stroke-width="2" stroke-linejoin="round"/>
<path d="M864 500.25V416.875H756L864 500.25Z" stroke="#DFDFDF" stroke-opacity="0.05" stroke-width="2" stroke-linejoin="round"/>
<path d="M540 416.875L648 333.5H540V416.875Z" stroke="#DFDFDF" stroke-opacity="0.05" stroke-width="2" stroke-linejoin="round"/>
<path d="M540 333.5L432 416.875V333.5H540Z" stroke="#DFDFDF" stroke-opacity="0.05" stroke-width="2" stroke-linejoin="round"/>
<path d="M432 500.25V416.875H540L432 500.25Z" stroke="#DFDFDF" stroke-opacity="0.05" stroke-width="2" stroke-linejoin="round"/>
<path d="M540 416.875V500.25L648 416.875H540Z" stroke="#DFDFDF" stroke-opacity="0.05" stroke-width="2" stroke-linejoin="round"/>
<path d="M648 583.625H540V500.25L648 583.625Z" stroke="#DFDFDF" stroke-opacity="0.05" stroke-width="2" stroke-linejoin="round"/>
<path d="M540 583.625V500.25L432 583.625H540Z" stroke="#DFDFDF" stroke-opacity="0.05" stroke-width="2" stroke-linejoin="round"/>
<path d="M540 667L432 583.625H540V667Z" stroke="#DFDFDF" stroke-opacity="0.05" stroke-width="2" stroke-linejoin="round"/>
<path d="M648 583.625V667L540 583.625H648Z" stroke="#DFDFDF" stroke-opacity="0.05" stroke-width="2" stroke-linejoin="round"/>
<path d="M864 500.25H756L864 583.625V500.25Z" stroke="#DFDFDF" stroke-opacity="0.05" stroke-width="2" stroke-linejoin="round"/>
<path d="M756 583.625L648 500.25V583.625H756Z" stroke="#DFDFDF" stroke-opacity="0.05" stroke-width="2" stroke-linejoin="round"/>
<path d="M756 667V583.625L648 667H756Z" stroke="#DFDFDF" stroke-opacity="0.05" stroke-width="2" stroke-linejoin="round"/>
<path d="M756 667L864 583.625H756V667Z" stroke="#DFDFDF" stroke-opacity="0.05" stroke-width="2" stroke-linejoin="round"/>
</g>
<defs>
<clipPath id="clip0_340_119">
<rect width="864" height="667" fill="white"/>
</clipPath>
</defs>
</svg>
