<svg width="1309" height="721" viewBox="0 0 1309 721" fill="none" xmlns="http://www.w3.org/2000/svg">
<g clip-path="url(#clip0_353_157)">
<path d="M981.75 180.25L1309 0H981.75V180.25Z" stroke="#DFDFDF" stroke-opacity="0.05" stroke-width="2" stroke-linejoin="round"/>
<path d="M818.125 0V90.125H981.75L818.125 0Z" stroke="#DFDFDF" stroke-opacity="0.05" stroke-width="2" stroke-linejoin="round"/>
<path d="M654.5 0L818.125 90.125H654.5V0Z" stroke="#DFDFDF" stroke-opacity="0.05" stroke-width="2" stroke-linejoin="round"/>
<path d="M818.125 90.125H654.5V180.25L818.125 90.125Z" stroke="#DFDFDF" stroke-opacity="0.05" stroke-width="2" stroke-linejoin="round"/>
<path d="M981.75 180.25H818.125L981.75 90.125V180.25Z" stroke="#DFDFDF" stroke-opacity="0.05" stroke-width="2" stroke-linejoin="round"/>
<path d="M981.75 180.25H818.125L981.75 270.375V180.25Z" stroke="#DFDFDF" stroke-opacity="0.05" stroke-width="2" stroke-linejoin="round"/>
<path d="M818.125 270.375V180.25H654.5L818.125 270.375Z" stroke="#DFDFDF" stroke-opacity="0.05" stroke-width="2" stroke-linejoin="round"/>
<path d="M818.125 270.375L736.312 315.438V270.375H818.125Z" stroke="#DFDFDF" stroke-opacity="0.05" stroke-width="2" stroke-linejoin="round"/>
<path d="M654.5 270.375L736.312 315.438V270.375H654.5Z" stroke="#DFDFDF" stroke-opacity="0.05" stroke-width="2" stroke-linejoin="round"/>
<path d="M654.5 360.5V315.438L736.312 360.5H654.5Z" stroke="#DFDFDF" stroke-opacity="0.05" stroke-width="2" stroke-linejoin="round"/>
<path d="M736.312 315.438H818.125V360.5L736.312 315.438Z" stroke="#DFDFDF" stroke-opacity="0.05" stroke-width="2" stroke-linejoin="round"/>
<path d="M981.75 270.375V315.438H899.938L981.75 270.375Z" stroke="#DFDFDF" stroke-opacity="0.05" stroke-width="2" stroke-linejoin="round"/>
<path d="M899.937 315.438V270.375H818.125L899.937 315.438Z" stroke="#DFDFDF" stroke-opacity="0.05" stroke-width="2" stroke-linejoin="round"/>
<path d="M818.125 315.438L899.937 360.5H818.125V315.438Z" stroke="#DFDFDF" stroke-opacity="0.05" stroke-width="2" stroke-linejoin="round"/>
<path d="M981.75 315.438L899.938 360.5H981.75V315.438Z" stroke="#DFDFDF" stroke-opacity="0.05" stroke-width="2" stroke-linejoin="round"/>
<path d="M1145.38 270.375H1309L1145.38 180.25V270.375Z" stroke="#DFDFDF" stroke-opacity="0.05" stroke-width="2" stroke-linejoin="round"/>
<path d="M981.75 180.25H1145.37L981.75 270.375V180.25Z" stroke="#DFDFDF" stroke-opacity="0.05" stroke-width="2" stroke-linejoin="round"/>
<path d="M1145.37 360.5V270.375L981.75 360.5H1145.37Z" stroke="#DFDFDF" stroke-opacity="0.05" stroke-width="2" stroke-linejoin="round"/>
<path d="M1309 270.375V360.5L1145.38 270.375H1309Z" stroke="#DFDFDF" stroke-opacity="0.05" stroke-width="2" stroke-linejoin="round"/>
<path d="M654.5 0V90.125H490.875L654.5 0Z" stroke="#DFDFDF" stroke-opacity="0.05" stroke-width="2" stroke-linejoin="round"/>
<path d="M490.875 90.125V0H327.25L490.875 90.125Z" stroke="#DFDFDF" stroke-opacity="0.05" stroke-width="2" stroke-linejoin="round"/>
<path d="M490.875 90.125V180.25H327.25L490.875 90.125Z" stroke="#DFDFDF" stroke-opacity="0.05" stroke-width="2" stroke-linejoin="round"/>
<path d="M654.5 180.25L490.875 90.125H654.5V180.25Z" stroke="#DFDFDF" stroke-opacity="0.05" stroke-width="2" stroke-linejoin="round"/>
<path d="M327.25 0L163.625 90.125H327.25V0Z" stroke="#DFDFDF" stroke-opacity="0.05" stroke-width="2" stroke-linejoin="round"/>
<path d="M0 0H163.625L0 90.125V0Z" stroke="#DFDFDF" stroke-opacity="0.05" stroke-width="2" stroke-linejoin="round"/>
<path d="M163.625 180.25L0 90.125H163.625V180.25Z" stroke="#DFDFDF" stroke-opacity="0.05" stroke-width="2" stroke-linejoin="round"/>
<path d="M327.25 90.125H163.625L327.25 180.25V90.125Z" stroke="#DFDFDF" stroke-opacity="0.05" stroke-width="2" stroke-linejoin="round"/>
<path d="M327.25 270.375L163.625 180.25V270.375H327.25Z" stroke="#DFDFDF" stroke-opacity="0.05" stroke-width="2" stroke-linejoin="round"/>
<path d="M0 180.25H163.625V270.375L0 180.25Z" stroke="#DFDFDF" stroke-opacity="0.05" stroke-width="2" stroke-linejoin="round"/>
<path d="M0 270.375L163.625 360.5H0V270.375Z" stroke="#DFDFDF" stroke-opacity="0.05" stroke-width="2" stroke-linejoin="round"/>
<path d="M163.625 270.375H327.25L163.625 360.5V270.375Z" stroke="#DFDFDF" stroke-opacity="0.05" stroke-width="2" stroke-linejoin="round"/>
<path d="M490.875 180.25H654.5L490.875 270.375V180.25Z" stroke="#DFDFDF" stroke-opacity="0.05" stroke-width="2" stroke-linejoin="round"/>
<path d="M409.062 180.25H490.875L409.062 225.313V180.25Z" stroke="#DFDFDF" stroke-opacity="0.05" stroke-width="2" stroke-linejoin="round"/>
<path d="M409.062 225.313H327.25L409.062 180.25V225.313Z" stroke="#DFDFDF" stroke-opacity="0.05" stroke-width="2" stroke-linejoin="round"/>
<path d="M327.25 270.375L409.062 225.312V270.375H327.25Z" stroke="#DFDFDF" stroke-opacity="0.05" stroke-width="2" stroke-linejoin="round"/>
<path d="M490.875 270.375V225.312H409.062L490.875 270.375Z" stroke="#DFDFDF" stroke-opacity="0.05" stroke-width="2" stroke-linejoin="round"/>
<path d="M490.875 315.438V270.375H409.062L490.875 315.438Z" stroke="#DFDFDF" stroke-opacity="0.05" stroke-width="2" stroke-linejoin="round"/>
<path d="M409.062 270.375L327.25 315.438H409.062V270.375Z" stroke="#DFDFDF" stroke-opacity="0.05" stroke-width="2" stroke-linejoin="round"/>
<path d="M409.062 360.5V315.438L327.25 360.5H409.062Z" stroke="#DFDFDF" stroke-opacity="0.05" stroke-width="2" stroke-linejoin="round"/>
<path d="M409.062 360.5L490.875 315.438H409.062V360.5Z" stroke="#DFDFDF" stroke-opacity="0.05" stroke-width="2" stroke-linejoin="round"/>
<path d="M654.5 315.438V270.375L572.688 315.438H654.5Z" stroke="#DFDFDF" stroke-opacity="0.05" stroke-width="2" stroke-linejoin="round"/>
<path d="M572.687 315.438V270.375L490.875 315.438H572.687Z" stroke="#DFDFDF" stroke-opacity="0.05" stroke-width="2" stroke-linejoin="round"/>
<path d="M572.687 360.5V315.438L490.875 360.5H572.687Z" stroke="#DFDFDF" stroke-opacity="0.05" stroke-width="2" stroke-linejoin="round"/>
<path d="M654.5 315.438L572.688 360.5V315.438H654.5Z" stroke="#DFDFDF" stroke-opacity="0.05" stroke-width="2" stroke-linejoin="round"/>
<path d="M654.5 360.5H490.875V450.625L654.5 360.5Z" stroke="#DFDFDF" stroke-opacity="0.05" stroke-width="2" stroke-linejoin="round"/>
<path d="M490.875 360.5V450.625H327.25L490.875 360.5Z" stroke="#DFDFDF" stroke-opacity="0.05" stroke-width="2" stroke-linejoin="round"/>
<path d="M490.875 450.625V540.75H327.25L490.875 450.625Z" stroke="#DFDFDF" stroke-opacity="0.05" stroke-width="2" stroke-linejoin="round"/>
<path d="M654.5 495.688V450.625L572.688 495.688H654.5Z" stroke="#DFDFDF" stroke-opacity="0.05" stroke-width="2" stroke-linejoin="round"/>
<path d="M490.875 450.625H572.687V495.688L490.875 450.625Z" stroke="#DFDFDF" stroke-opacity="0.05" stroke-width="2" stroke-linejoin="round"/>
<path d="M490.875 495.688L572.687 540.75H490.875V495.688Z" stroke="#DFDFDF" stroke-opacity="0.05" stroke-width="2" stroke-linejoin="round"/>
<path d="M654.5 540.75H572.688L654.5 495.688V540.75Z" stroke="#DFDFDF" stroke-opacity="0.05" stroke-width="2" stroke-linejoin="round"/>
<path d="M327.25 450.625V360.5H163.625L327.25 450.625Z" stroke="#DFDFDF" stroke-opacity="0.05" stroke-width="2" stroke-linejoin="round"/>
<path d="M0 450.625H163.625L0 360.5V450.625Z" stroke="#DFDFDF" stroke-opacity="0.05" stroke-width="2" stroke-linejoin="round"/>
<path d="M0 450.625V540.75L163.625 450.625H0Z" stroke="#DFDFDF" stroke-opacity="0.05" stroke-width="2" stroke-linejoin="round"/>
<path d="M163.625 540.75L327.25 450.625H163.625V540.75Z" stroke="#DFDFDF" stroke-opacity="0.05" stroke-width="2" stroke-linejoin="round"/>
<path d="M327.25 540.75V630.875L163.625 540.75H327.25Z" stroke="#DFDFDF" stroke-opacity="0.05" stroke-width="2" stroke-linejoin="round"/>
<path d="M163.625 540.75V630.875H0L163.625 540.75Z" stroke="#DFDFDF" stroke-opacity="0.05" stroke-width="2" stroke-linejoin="round"/>
<path d="M163.625 721H0L163.625 630.875V721Z" stroke="#DFDFDF" stroke-opacity="0.05" stroke-width="2" stroke-linejoin="round"/>
<path d="M327.25 721L163.625 630.875H327.25V721Z" stroke="#DFDFDF" stroke-opacity="0.05" stroke-width="2" stroke-linejoin="round"/>
<path d="M490.875 630.875L654.5 540.75V630.875H490.875Z" stroke="#DFDFDF" stroke-opacity="0.05" stroke-width="2" stroke-linejoin="round"/>
<path d="M490.875 540.75H327.25V630.875L490.875 540.75Z" stroke="#DFDFDF" stroke-opacity="0.05" stroke-width="2" stroke-linejoin="round"/>
<path d="M327.25 630.875H490.875L327.25 721V630.875Z" stroke="#DFDFDF" stroke-opacity="0.05" stroke-width="2" stroke-linejoin="round"/>
<path d="M490.875 630.875H654.5V721L490.875 630.875Z" stroke="#DFDFDF" stroke-opacity="0.05" stroke-width="2" stroke-linejoin="round"/>
<path d="M1309 450.625H1145.38V360.5L1309 450.625Z" stroke="#DFDFDF" stroke-opacity="0.05" stroke-width="2" stroke-linejoin="round"/>
<path d="M1145.37 360.5V450.625L981.75 360.5H1145.37Z" stroke="#DFDFDF" stroke-opacity="0.05" stroke-width="2" stroke-linejoin="round"/>
<path d="M981.75 540.75V450.625H1145.37L981.75 540.75Z" stroke="#DFDFDF" stroke-opacity="0.05" stroke-width="2" stroke-linejoin="round"/>
<path d="M1309 540.75V450.625H1145.38L1309 540.75Z" stroke="#DFDFDF" stroke-opacity="0.05" stroke-width="2" stroke-linejoin="round"/>
<path d="M818.125 450.625L981.75 360.5H818.125V450.625Z" stroke="#DFDFDF" stroke-opacity="0.05" stroke-width="2" stroke-linejoin="round"/>
<path d="M818.125 360.5L654.5 450.625V360.5H818.125Z" stroke="#DFDFDF" stroke-opacity="0.05" stroke-width="2" stroke-linejoin="round"/>
<path d="M654.5 540.75V450.625H818.125L654.5 540.75Z" stroke="#DFDFDF" stroke-opacity="0.05" stroke-width="2" stroke-linejoin="round"/>
<path d="M818.125 450.625V540.75L981.75 450.625H818.125Z" stroke="#DFDFDF" stroke-opacity="0.05" stroke-width="2" stroke-linejoin="round"/>
<path d="M981.75 630.875H818.125V540.75L981.75 630.875Z" stroke="#DFDFDF" stroke-opacity="0.05" stroke-width="2" stroke-linejoin="round"/>
<path d="M818.125 630.875V540.75L654.5 630.875H818.125Z" stroke="#DFDFDF" stroke-opacity="0.05" stroke-width="2" stroke-linejoin="round"/>
<path d="M818.125 721L654.5 630.875H818.125V721Z" stroke="#DFDFDF" stroke-opacity="0.05" stroke-width="2" stroke-linejoin="round"/>
<path d="M981.75 630.875V721L818.125 630.875H981.75Z" stroke="#DFDFDF" stroke-opacity="0.05" stroke-width="2" stroke-linejoin="round"/>
<path d="M1309 540.75H1145.38L1309 630.875V540.75Z" stroke="#DFDFDF" stroke-opacity="0.05" stroke-width="2" stroke-linejoin="round"/>
<path d="M1145.37 630.875L981.75 540.75V630.875H1145.37Z" stroke="#DFDFDF" stroke-opacity="0.05" stroke-width="2" stroke-linejoin="round"/>
<path d="M1145.37 721V630.875L981.75 721H1145.37Z" stroke="#DFDFDF" stroke-opacity="0.05" stroke-width="2" stroke-linejoin="round"/>
<path d="M1145.38 721L1309 630.875H1145.38V721Z" stroke="#DFDFDF" stroke-opacity="0.05" stroke-width="2" stroke-linejoin="round"/>
</g>
<defs>
<clipPath id="clip0_353_157">
<rect width="1309" height="721" fill="white"/>
</clipPath>
</defs>
</svg>
