<svg width="962" height="604" viewBox="0 0 962 604" fill="none" xmlns="http://www.w3.org/2000/svg">
<g clip-path="url(#clip0_346_25)">
<rect width="963" height="604" transform="translate(-1)" fill="url(#paint0_linear_346_25)"/>
<path d="M79.25 0L-1 50.3333" stroke="#F3F3F3" stroke-opacity="0.05" stroke-width="3.5"/>
<path d="M159.5 0L79.25 50.3333" stroke="#F3F3F3" stroke-opacity="0.05" stroke-width="3.5"/>
<path d="M239.75 0L159.5 50.3333" stroke="#F3F3F3" stroke-opacity="0.05" stroke-width="3.5"/>
<path d="M320 0L239.75 50.3333" stroke="#F3F3F3" stroke-opacity="0.05" stroke-width="3.5"/>
<path d="M400.25 0L320 50.3333" stroke="#F3F3F3" stroke-opacity="0.05" stroke-width="3.5"/>
<path d="M480.5 0L400.25 50.3333" stroke="#F3F3F3" stroke-opacity="0.05" stroke-width="3.5"/>
<path d="M560.75 0L480.5 50.3333" stroke="#F3F3F3" stroke-opacity="0.05" stroke-width="3.5"/>
<path d="M641 0L560.75 50.3333" stroke="#F3F3F3" stroke-opacity="0.05" stroke-width="3.5"/>
<path d="M721.25 0L641 50.3333" stroke="#F3F3F3" stroke-opacity="0.05" stroke-width="3.5"/>
<path d="M801.5 0L721.25 50.3333" stroke="#F3F3F3" stroke-opacity="0.05" stroke-width="3.5"/>
<path d="M881.75 0L801.5 50.3333" stroke="#F3F3F3" stroke-opacity="0.05" stroke-width="3.5"/>
<path d="M962 0L881.75 50.3333" stroke="#F3F3F3" stroke-opacity="0.05" stroke-width="3.5"/>
<path d="M1042.25 0L962 50.3333" stroke="#F3F3F3" stroke-opacity="0.05" stroke-width="3.5"/>
<path d="M79.25 50.3333L-1 100.667" stroke="#F3F3F3" stroke-opacity="0.05" stroke-width="3.5"/>
<path d="M159.5 50.3333L79.25 100.667" stroke="#F3F3F3" stroke-opacity="0.05" stroke-width="3.5"/>
<path d="M239.75 50.3333L159.5 100.667" stroke="#F3F3F3" stroke-opacity="0.05" stroke-width="3.5"/>
<path d="M320 50.3333L239.75 100.667" stroke="#F3F3F3" stroke-opacity="0.05" stroke-width="3.5"/>
<path d="M400.25 50.3333L320 100.667" stroke="#F3F3F3" stroke-opacity="0.05" stroke-width="3.5"/>
<path d="M480.5 50.3333L400.25 100.667" stroke="#F3F3F3" stroke-opacity="0.05" stroke-width="3.5"/>
<path d="M560.75 50.3333L480.5 100.667" stroke="#F3F3F3" stroke-opacity="0.05" stroke-width="3.5"/>
<path d="M641 50.3333L560.75 100.667" stroke="#F3F3F3" stroke-opacity="0.05" stroke-width="3.5"/>
<path d="M721.25 50.3333L641 100.667" stroke="#F3F3F3" stroke-opacity="0.05" stroke-width="3.5"/>
<path d="M801.5 50.3333L721.25 100.667" stroke="#F3F3F3" stroke-opacity="0.05" stroke-width="3.5"/>
<path d="M881.75 50.3333L801.5 100.667" stroke="#F3F3F3" stroke-opacity="0.05" stroke-width="3.5"/>
<path d="M962 50.3333L881.75 100.667" stroke="#F3F3F3" stroke-opacity="0.05" stroke-width="3.5"/>
<path d="M1042.25 50.3333L962 100.667" stroke="#F3F3F3" stroke-opacity="0.05" stroke-width="3.5"/>
<path d="M79.25 100.667L-1 151" stroke="#F3F3F3" stroke-opacity="0.05" stroke-width="3.5"/>
<path d="M159.5 100.667L79.25 151" stroke="#F3F3F3" stroke-opacity="0.05" stroke-width="3.5"/>
<path d="M239.75 100.667L159.5 151" stroke="#F3F3F3" stroke-opacity="0.05" stroke-width="3.5"/>
<path d="M320 100.667L239.75 151" stroke="#F3F3F3" stroke-opacity="0.05" stroke-width="3.5"/>
<path d="M400.25 100.667L320 151" stroke="#F3F3F3" stroke-opacity="0.05" stroke-width="3.5"/>
<path d="M480.5 100.667L400.25 151" stroke="#F3F3F3" stroke-opacity="0.05" stroke-width="3.5"/>
<path d="M560.75 100.667L480.5 151" stroke="#F3F3F3" stroke-opacity="0.05" stroke-width="3.5"/>
<path d="M641 100.667L560.75 151" stroke="#F3F3F3" stroke-opacity="0.05" stroke-width="3.5"/>
<path d="M721.25 100.667L641 151" stroke="#F3F3F3" stroke-opacity="0.05" stroke-width="3.5"/>
<path d="M801.5 100.667L721.25 151" stroke="#F3F3F3" stroke-opacity="0.05" stroke-width="3.5"/>
<path d="M881.75 100.667L801.5 151" stroke="#F3F3F3" stroke-opacity="0.05" stroke-width="3.5"/>
<path d="M962 100.667L881.75 151" stroke="#F3F3F3" stroke-opacity="0.05" stroke-width="3.5"/>
<path d="M1042.25 100.667L962 151" stroke="#F3F3F3" stroke-opacity="0.05" stroke-width="3.5"/>
<path d="M79.25 151L-1 201.333" stroke="#F3F3F3" stroke-opacity="0.05" stroke-width="3.5"/>
<path d="M159.5 151L79.25 201.333" stroke="#F3F3F3" stroke-opacity="0.05" stroke-width="3.5"/>
<path d="M239.75 151L159.5 201.333" stroke="#F3F3F3" stroke-opacity="0.05" stroke-width="3.5"/>
<path d="M320 151L239.75 201.333" stroke="#F3F3F3" stroke-opacity="0.05" stroke-width="3.5"/>
<path d="M400.25 151L320 201.333" stroke="#F3F3F3" stroke-opacity="0.05" stroke-width="3.5"/>
<path d="M480.5 151L400.25 201.333" stroke="#F3F3F3" stroke-opacity="0.05" stroke-width="3.5"/>
<path d="M560.75 151L480.5 201.333" stroke="#F3F3F3" stroke-opacity="0.05" stroke-width="3.5"/>
<path d="M641 151L560.75 201.333" stroke="#F3F3F3" stroke-opacity="0.05" stroke-width="3.5"/>
<path d="M721.25 151L641 201.333" stroke="#F3F3F3" stroke-opacity="0.05" stroke-width="3.5"/>
<path d="M801.5 151L721.25 201.333" stroke="#F3F3F3" stroke-opacity="0.05" stroke-width="3.5"/>
<path d="M881.75 151L801.5 201.333" stroke="#F3F3F3" stroke-opacity="0.05" stroke-width="3.5"/>
<path d="M962 151L881.75 201.333" stroke="#F3F3F3" stroke-opacity="0.05" stroke-width="3.5"/>
<path d="M1042.25 151L962 201.333" stroke="#F3F3F3" stroke-opacity="0.05" stroke-width="3.5"/>
<path d="M79.25 201.333L-1 251.667" stroke="#F3F3F3" stroke-opacity="0.05" stroke-width="3.5"/>
<path d="M159.5 201.333L79.25 251.667" stroke="#F3F3F3" stroke-opacity="0.05" stroke-width="3.5"/>
<path d="M239.75 201.333L159.5 251.667" stroke="#F3F3F3" stroke-opacity="0.05" stroke-width="3.5"/>
<path d="M320 201.333L239.75 251.667" stroke="#F3F3F3" stroke-opacity="0.05" stroke-width="3.5"/>
<path d="M400.25 201.333L320 251.667" stroke="#F3F3F3" stroke-opacity="0.05" stroke-width="3.5"/>
<path d="M480.5 201.333L400.25 251.667" stroke="#F3F3F3" stroke-opacity="0.05" stroke-width="3.5"/>
<path d="M560.75 201.333L480.5 251.667" stroke="#F3F3F3" stroke-opacity="0.05" stroke-width="3.5"/>
<path d="M641 201.333L560.75 251.667" stroke="#F3F3F3" stroke-opacity="0.05" stroke-width="3.5"/>
<path d="M721.25 201.333L641 251.667" stroke="#F3F3F3" stroke-opacity="0.05" stroke-width="3.5"/>
<path d="M801.5 201.333L721.25 251.667" stroke="#F3F3F3" stroke-opacity="0.05" stroke-width="3.5"/>
<path d="M881.75 201.333L801.5 251.667" stroke="#F3F3F3" stroke-opacity="0.05" stroke-width="3.5"/>
<path d="M962 201.333L881.75 251.667" stroke="#F3F3F3" stroke-opacity="0.05" stroke-width="3.5"/>
<path d="M1042.25 201.333L962 251.667" stroke="#F3F3F3" stroke-opacity="0.05" stroke-width="3.5"/>
<path d="M79.25 251.667L-1 302" stroke="#F3F3F3" stroke-opacity="0.05" stroke-width="3.5"/>
<path d="M159.5 251.667L79.25 302" stroke="#F3F3F3" stroke-opacity="0.05" stroke-width="3.5"/>
<path d="M239.75 251.667L159.5 302" stroke="#F3F3F3" stroke-opacity="0.05" stroke-width="3.5"/>
<path d="M320 251.667L239.75 302" stroke="#F3F3F3" stroke-opacity="0.05" stroke-width="3.5"/>
<path d="M400.25 251.667L320 302" stroke="#F3F3F3" stroke-opacity="0.05" stroke-width="3.5"/>
<path d="M480.5 251.667L400.25 302" stroke="#F3F3F3" stroke-opacity="0.05" stroke-width="3.5"/>
<path d="M560.75 251.667L480.5 302" stroke="#F3F3F3" stroke-opacity="0.05" stroke-width="3.5"/>
<path d="M641 251.667L560.75 302" stroke="#F3F3F3" stroke-opacity="0.05" stroke-width="3.5"/>
<path d="M721.25 251.667L641 302" stroke="#F3F3F3" stroke-opacity="0.05" stroke-width="3.5"/>
<path d="M801.5 251.667L721.25 302" stroke="#F3F3F3" stroke-opacity="0.05" stroke-width="3.5"/>
<path d="M881.75 251.667L801.5 302" stroke="#F3F3F3" stroke-opacity="0.05" stroke-width="3.5"/>
<path d="M962 251.667L881.75 302" stroke="#F3F3F3" stroke-opacity="0.05" stroke-width="3.5"/>
<path d="M1042.25 251.667L962 302" stroke="#F3F3F3" stroke-opacity="0.05" stroke-width="3.5"/>
<path d="M79.25 302L-1 352.333" stroke="#F3F3F3" stroke-opacity="0.05" stroke-width="3.5"/>
<path d="M159.5 302L79.25 352.333" stroke="#F3F3F3" stroke-opacity="0.05" stroke-width="3.5"/>
<path d="M239.75 302L159.5 352.333" stroke="#F3F3F3" stroke-opacity="0.05" stroke-width="3.5"/>
<path d="M320 302L239.75 352.333" stroke="#F3F3F3" stroke-opacity="0.05" stroke-width="3.5"/>
<path d="M400.25 302L320 352.333" stroke="#F3F3F3" stroke-opacity="0.05" stroke-width="3.5"/>
<path d="M480.5 302L400.25 352.333" stroke="#F3F3F3" stroke-opacity="0.05" stroke-width="3.5"/>
<path d="M560.75 302L480.5 352.333" stroke="#F3F3F3" stroke-opacity="0.05" stroke-width="3.5"/>
<path d="M641 302L560.75 352.333" stroke="#F3F3F3" stroke-opacity="0.05" stroke-width="3.5"/>
<path d="M721.25 302L641 352.333" stroke="#F3F3F3" stroke-opacity="0.05" stroke-width="3.5"/>
<path d="M801.5 302L721.25 352.333" stroke="#F3F3F3" stroke-opacity="0.05" stroke-width="3.5"/>
<path d="M881.75 302L801.5 352.333" stroke="#F3F3F3" stroke-opacity="0.05" stroke-width="3.5"/>
<path d="M962 302L881.75 352.333" stroke="#F3F3F3" stroke-opacity="0.05" stroke-width="3.5"/>
<path d="M1042.25 302L962 352.333" stroke="#F3F3F3" stroke-opacity="0.05" stroke-width="3.5"/>
<path d="M79.25 352.333L-1 402.667" stroke="#F3F3F3" stroke-opacity="0.05" stroke-width="3.5"/>
<path d="M159.5 352.333L79.25 402.667" stroke="#F3F3F3" stroke-opacity="0.05" stroke-width="3.5"/>
<path d="M239.75 352.333L159.5 402.667" stroke="#F3F3F3" stroke-opacity="0.05" stroke-width="3.5"/>
<path d="M320 352.333L239.75 402.667" stroke="#F3F3F3" stroke-opacity="0.05" stroke-width="3.5"/>
<path d="M400.25 352.333L320 402.667" stroke="#F3F3F3" stroke-opacity="0.05" stroke-width="3.5"/>
<path d="M480.5 352.333L400.25 402.667" stroke="#F3F3F3" stroke-opacity="0.05" stroke-width="3.5"/>
<path d="M560.75 352.333L480.5 402.667" stroke="#F3F3F3" stroke-opacity="0.05" stroke-width="3.5"/>
<path d="M641 352.333L560.75 402.667" stroke="#F3F3F3" stroke-opacity="0.05" stroke-width="3.5"/>
<path d="M721.25 352.333L641 402.667" stroke="#F3F3F3" stroke-opacity="0.05" stroke-width="3.5"/>
<path d="M801.5 352.333L721.25 402.667" stroke="#F3F3F3" stroke-opacity="0.05" stroke-width="3.5"/>
<path d="M881.75 352.333L801.5 402.667" stroke="#F3F3F3" stroke-opacity="0.05" stroke-width="3.5"/>
<path d="M962 352.333L881.75 402.667" stroke="#F3F3F3" stroke-opacity="0.05" stroke-width="3.5"/>
<path d="M1042.25 352.333L962 402.667" stroke="#F3F3F3" stroke-opacity="0.05" stroke-width="3.5"/>
<path d="M79.25 402.667L-1 453" stroke="#F3F3F3" stroke-opacity="0.05" stroke-width="3.5"/>
<path d="M159.5 402.667L79.25 453" stroke="#F3F3F3" stroke-opacity="0.05" stroke-width="3.5"/>
<path d="M239.75 402.667L159.5 453" stroke="#F3F3F3" stroke-opacity="0.05" stroke-width="3.5"/>
<path d="M320 402.667L239.75 453" stroke="#F3F3F3" stroke-opacity="0.05" stroke-width="3.5"/>
<path d="M400.25 402.667L320 453" stroke="#F3F3F3" stroke-opacity="0.05" stroke-width="3.5"/>
<path d="M480.5 402.667L400.25 453" stroke="#F3F3F3" stroke-opacity="0.05" stroke-width="3.5"/>
<path d="M560.75 402.667L480.5 453" stroke="#F3F3F3" stroke-opacity="0.05" stroke-width="3.5"/>
<path d="M641 402.667L560.75 453" stroke="#F3F3F3" stroke-opacity="0.05" stroke-width="3.5"/>
<path d="M721.25 402.667L641 453" stroke="#F3F3F3" stroke-opacity="0.05" stroke-width="3.5"/>
<path d="M801.5 402.667L721.25 453" stroke="#F3F3F3" stroke-opacity="0.05" stroke-width="3.5"/>
<path d="M881.75 402.667L801.5 453" stroke="#F3F3F3" stroke-opacity="0.05" stroke-width="3.5"/>
<path d="M962 402.667L881.75 453" stroke="#F3F3F3" stroke-opacity="0.05" stroke-width="3.5"/>
<path d="M1042.25 402.667L962 453" stroke="#F3F3F3" stroke-opacity="0.05" stroke-width="3.5"/>
<path d="M79.25 453L-1 503.333" stroke="#F3F3F3" stroke-opacity="0.05" stroke-width="3.5"/>
<path d="M159.5 453L79.25 503.333" stroke="#F3F3F3" stroke-opacity="0.05" stroke-width="3.5"/>
<path d="M239.75 453L159.5 503.333" stroke="#F3F3F3" stroke-opacity="0.05" stroke-width="3.5"/>
<path d="M320 453L239.75 503.333" stroke="#F3F3F3" stroke-opacity="0.05" stroke-width="3.5"/>
<path d="M400.25 453L320 503.333" stroke="#F3F3F3" stroke-opacity="0.05" stroke-width="3.5"/>
<path d="M480.5 453L400.25 503.333" stroke="#F3F3F3" stroke-opacity="0.05" stroke-width="3.5"/>
<path d="M560.75 453L480.5 503.333" stroke="#F3F3F3" stroke-opacity="0.05" stroke-width="3.5"/>
<path d="M641 453L560.75 503.333" stroke="#F3F3F3" stroke-opacity="0.05" stroke-width="3.5"/>
<path d="M721.25 453L641 503.333" stroke="#F3F3F3" stroke-opacity="0.05" stroke-width="3.5"/>
<path d="M801.5 453L721.25 503.333" stroke="#F3F3F3" stroke-opacity="0.05" stroke-width="3.5"/>
<path d="M881.75 453L801.5 503.333" stroke="#F3F3F3" stroke-opacity="0.05" stroke-width="3.5"/>
<path d="M962 453L881.75 503.333" stroke="#F3F3F3" stroke-opacity="0.05" stroke-width="3.5"/>
<path d="M1042.25 453L962 503.333" stroke="#F3F3F3" stroke-opacity="0.05" stroke-width="3.5"/>
<path d="M79.25 503.333L-1 553.667" stroke="#F3F3F3" stroke-opacity="0.05" stroke-width="3.5"/>
<path d="M159.5 503.333L79.25 553.667" stroke="#F3F3F3" stroke-opacity="0.05" stroke-width="3.5"/>
<path d="M239.75 503.333L159.5 553.667" stroke="#F3F3F3" stroke-opacity="0.05" stroke-width="3.5"/>
<path d="M320 503.333L239.75 553.667" stroke="#F3F3F3" stroke-opacity="0.05" stroke-width="3.5"/>
<path d="M400.25 503.333L320 553.667" stroke="#F3F3F3" stroke-opacity="0.05" stroke-width="3.5"/>
<path d="M480.5 503.333L400.25 553.667" stroke="#F3F3F3" stroke-opacity="0.05" stroke-width="3.5"/>
<path d="M560.75 503.333L480.5 553.667" stroke="#F3F3F3" stroke-opacity="0.05" stroke-width="3.5"/>
<path d="M641 503.333L560.75 553.667" stroke="#F3F3F3" stroke-opacity="0.05" stroke-width="3.5"/>
<path d="M721.25 503.333L641 553.667" stroke="#F3F3F3" stroke-opacity="0.05" stroke-width="3.5"/>
<path d="M801.5 503.333L721.25 553.667" stroke="#F3F3F3" stroke-opacity="0.05" stroke-width="3.5"/>
<path d="M881.75 503.333L801.5 553.667" stroke="#F3F3F3" stroke-opacity="0.05" stroke-width="3.5"/>
<path d="M962 503.333L881.75 553.667" stroke="#F3F3F3" stroke-opacity="0.05" stroke-width="3.5"/>
<path d="M1042.25 503.333L962 553.667" stroke="#F3F3F3" stroke-opacity="0.05" stroke-width="3.5"/>
<path d="M79.25 553.667L-1 604" stroke="#F3F3F3" stroke-opacity="0.05" stroke-width="3.5"/>
<path d="M159.5 553.667L79.25 604" stroke="#F3F3F3" stroke-opacity="0.05" stroke-width="3.5"/>
<path d="M239.75 553.667L159.5 604" stroke="#F3F3F3" stroke-opacity="0.05" stroke-width="3.5"/>
<path d="M320 553.667L239.75 604" stroke="#F3F3F3" stroke-opacity="0.05" stroke-width="3.5"/>
<path d="M400.25 553.667L320 604" stroke="#F3F3F3" stroke-opacity="0.05" stroke-width="3.5"/>
<path d="M480.5 553.667L400.25 604" stroke="#F3F3F3" stroke-opacity="0.05" stroke-width="3.5"/>
<path d="M560.75 553.667L480.5 604" stroke="#F3F3F3" stroke-opacity="0.05" stroke-width="3.5"/>
<path d="M641 553.667L560.75 604" stroke="#F3F3F3" stroke-opacity="0.05" stroke-width="3.5"/>
<path d="M721.25 553.667L641 604" stroke="#F3F3F3" stroke-opacity="0.05" stroke-width="3.5"/>
<path d="M801.5 553.667L721.25 604" stroke="#F3F3F3" stroke-opacity="0.05" stroke-width="3.5"/>
<path d="M881.75 553.667L801.5 604" stroke="#F3F3F3" stroke-opacity="0.05" stroke-width="3.5"/>
<path d="M962 553.667L881.75 604" stroke="#F3F3F3" stroke-opacity="0.05" stroke-width="3.5"/>
<path d="M1042.25 553.667L962 604" stroke="#F3F3F3" stroke-opacity="0.05" stroke-width="3.5"/>
<path d="M79.25 604L-1 654.333" stroke="#F3F3F3" stroke-opacity="0.05" stroke-width="3.5"/>
<path d="M159.5 604L79.25 654.333" stroke="#F3F3F3" stroke-opacity="0.05" stroke-width="3.5"/>
<path d="M239.75 604L159.5 654.333" stroke="#F3F3F3" stroke-opacity="0.05" stroke-width="3.5"/>
<path d="M320 604L239.75 654.333" stroke="#F3F3F3" stroke-opacity="0.05" stroke-width="3.5"/>
<path d="M400.25 604L320 654.333" stroke="#F3F3F3" stroke-opacity="0.05" stroke-width="3.5"/>
<path d="M480.5 604L400.25 654.333" stroke="#F3F3F3" stroke-opacity="0.05" stroke-width="3.5"/>
<path d="M560.75 604L480.5 654.333" stroke="#F3F3F3" stroke-opacity="0.05" stroke-width="3.5"/>
<path d="M641 604L560.75 654.333" stroke="#F3F3F3" stroke-opacity="0.05" stroke-width="3.5"/>
<path d="M721.25 604L641 654.333" stroke="#F3F3F3" stroke-opacity="0.05" stroke-width="3.5"/>
<path d="M801.5 604L721.25 654.333" stroke="#F3F3F3" stroke-opacity="0.05" stroke-width="3.5"/>
<path d="M881.75 604L801.5 654.333" stroke="#F3F3F3" stroke-opacity="0.05" stroke-width="3.5"/>
<path d="M962 604L881.75 654.333" stroke="#F3F3F3" stroke-opacity="0.05" stroke-width="3.5"/>
<path d="M1042.25 604L962 654.333" stroke="#F3F3F3" stroke-opacity="0.05" stroke-width="3.5"/>
</g>
<defs>
<linearGradient id="paint0_linear_346_25" x1="0" y1="302" x2="963" y2="302" gradientUnits="userSpaceOnUse">
<stop stop-color="#252A2E"/>
<stop offset="0.302083" stop-color="#252A2E" stop-opacity="0"/>
</linearGradient>
<clipPath id="clip0_346_25">
<rect width="963" height="604" fill="white" transform="translate(-1)"/>
</clipPath>
</defs>
</svg>
