<svg width="173" height="52" viewBox="0 0 173 52" fill="none" xmlns="http://www.w3.org/2000/svg">
<path d="M14.528 20.592L13.888 26.544H7.36V46H1.28V7.152H0.32L0.96 1.2H15.808L15.168 7.152H7.36V20.592H14.528ZM24.75 46V7.152H23.79L24.43 1.2H30.83V46H24.75ZM39.455 46L45.471 23.6L39.455 1.2H45.855L49.247 16.752L52.703 1.2H59.103L53.023 23.6L59.103 46H52.703L49.247 30.448L45.855 46H39.455ZM68.3625 46V7.152H67.4025L68.0425 1.2H78.0265L81.0985 25.328L84.2345 1.2H94.0265V46H87.9465V11.184L83.2105 39.6H79.0505L74.4425 11.952V46H68.3625ZM108.445 46H102.365L105.821 7.152H104.669L105.309 1.2H117.021L120.989 46H114.909L114.205 38.32H109.149L108.445 46ZM109.661 32.368H113.693L111.709 10.096L109.661 32.368ZM128.64 7.152L129.28 1.2H139.392C141.184 1.2 142.635 1.75466 143.744 2.864C144.853 3.93066 145.408 5.36 145.408 7.152V27.184C145.408 28.1227 145.216 28.976 144.832 29.744C144.448 30.4693 143.936 31.088 143.296 31.6L147.392 46H141.248L137.6 33.136H135.68V46H129.6V7.152H128.64ZM139.008 7.152H135.68V27.184H139.008C139.221 27.184 139.328 27.0773 139.328 26.864V7.472C139.328 7.25866 139.221 7.152 139.008 7.152ZM171.07 40.304C171.07 41.5413 170.793 42.6293 170.238 43.568C169.683 44.5067 168.915 45.1893 167.934 45.616V46H172.798L171.518 51.504H167.934C166.27 51.504 164.905 51.0133 163.838 50.032C162.814 49.0933 162.217 47.8347 162.046 46.256H160.446C158.654 46.256 157.203 45.7227 156.094 44.656C154.985 43.5467 154.43 42.096 154.43 40.304V6.896C154.43 5.104 154.985 3.67466 156.094 2.608C157.203 1.49866 158.654 0.943996 160.446 0.943996H165.054C166.846 0.943996 168.297 1.49866 169.406 2.608C170.515 3.67466 171.07 5.104 171.07 6.896V40.304ZM160.83 6.896C160.617 6.896 160.51 7.00267 160.51 7.216V39.984C160.51 40.1973 160.617 40.304 160.83 40.304H164.67C164.883 40.304 164.99 40.1973 164.99 39.984V7.216C164.99 7.00267 164.883 6.896 164.67 6.896H160.83Z" fill="white"/>
</svg>
