<svg width="136" height="145" viewBox="0 0 136 145" fill="none" xmlns="http://www.w3.org/2000/svg">
<path d="M3.68517 54.0202C0.275587 56.8302 -0.556608 62.1242 1.82641 65.8447C4.20942 69.5653 8.90525 70.3034 12.3148 67.4935L3.68517 54.0202ZM12.3148 67.4935L77.5427 13.7366L68.913 0.263352L3.68517 54.0202L12.3148 67.4935Z" fill="white"/>
<path d="M123.685 67.4935C127.095 70.3035 131.791 69.5653 134.174 65.8448C136.557 62.1242 135.724 56.8302 132.315 54.0202L123.685 67.4935ZM58.4574 13.7366L123.685 67.4935L132.315 54.0202L67.087 0.263368L58.4574 13.7366Z" fill="white"/>
<path d="M15.6707 21.792V107.374H33.1039L43.1413 74.2257L53.1786 107.374H70.6119V21.792H54.7634V76.6365L48.4241 49.5156H37.8585L31.5191 76.6365V21.792H15.6707Z" fill="white"/>
<path d="M118.157 113.712L118.157 43.9793H103.741L95.4411 70.9886L87.141 43.9793H72.725V113.712H85.8304V69.0243L91.0726 91.1228H99.8096L105.052 69.0243V113.712H118.157Z" fill="white"/>
<path d="M32.2328 129.433L31.9141 132.397H28.6638V142.084H25.6366V122.741H25.1586L25.4772 119.778H32.8701L32.5515 122.741H28.6638V129.433H32.2328ZM37.3224 142.084V122.741H36.8444L37.1631 119.778H40.3497V142.084H37.3224ZM44.6441 142.084L47.6395 130.931L44.6441 119.778H47.8307L49.5196 127.521L51.2403 119.778H54.4269L51.3997 130.931L54.4269 142.084H51.2403L49.5196 134.341L47.8307 142.084H44.6441ZM59.0373 142.084V122.741H58.5593L58.878 119.778H63.8491L65.3786 131.791L66.94 119.778H71.8155V142.084H68.7883V124.749L66.4302 138.897H64.3589L62.0646 125.131V142.084H59.0373ZM78.9945 142.084H75.9673L77.688 122.741H77.1145L77.4331 119.778H83.2646L85.2403 142.084H82.213L81.8625 138.26H79.3451L78.9945 142.084ZM79.6 135.297H81.6075L80.6197 124.207L79.6 135.297ZM89.0497 122.741L89.3684 119.778H94.4032C95.2954 119.778 96.0177 120.054 96.5701 120.606C97.1225 121.137 97.3986 121.849 97.3986 122.741V132.715C97.3986 133.182 97.303 133.608 97.1118 133.99C96.9206 134.352 96.6657 134.659 96.347 134.914L98.3864 142.084H95.3273L93.5109 135.679H92.555V142.084H89.5277V122.741H89.0497ZM94.212 122.741H92.555V132.715H94.212C94.3183 132.715 94.3713 132.663 94.3713 132.556V122.901C94.3713 122.794 94.3183 122.741 94.212 122.741ZM110.176 139.248C110.176 139.864 110.038 140.406 109.761 140.873C109.486 141.34 109.103 141.681 108.614 141.893V142.084H111.036L110.399 144.824H108.614C107.786 144.824 107.107 144.581 106.575 144.092C106.065 143.625 105.768 142.997 105.682 142.211H104.886C103.994 142.211 103.272 141.945 102.719 141.415C102.167 140.862 101.89 140.14 101.89 139.248V122.614C101.89 121.722 102.167 121.01 102.719 120.479C103.272 119.926 103.994 119.65 104.886 119.65H107.18C108.072 119.65 108.796 119.926 109.347 120.479C109.9 121.01 110.176 121.722 110.176 122.614V139.248ZM105.077 122.614C104.972 122.614 104.918 122.667 104.918 122.773V139.089C104.918 139.195 104.972 139.248 105.077 139.248H106.989C107.096 139.248 107.148 139.195 107.148 139.089V122.773C107.148 122.667 107.096 122.614 106.989 122.614H105.077Z" fill="white"/>
</svg>
