<svg width="80" height="80" viewBox="0 0 80 80" fill="none" xmlns="http://www.w3.org/2000/svg">
<path fillRule="evenodd" clipRule="evenodd" d="M80 40C80 62.0914 62.0914 80 40 80C17.9086 80 0 62.0914 0 40C0 17.9086 17.9086 0 40 0C62.0914 0 80 17.9086 80 40ZM34.4062 30.8C40.4062 23.0896 49.7812 18.125 60.3125 18.125C60.7269 18.125 61.1243 18.2896 61.4174 18.5826C61.7104 18.8757 61.875 19.2731 61.875 19.6875C61.875 30.2208 56.9104 39.5938 49.2 45.5958C49.5207 47.6047 49.4017 49.6592 48.8512 51.6175C48.3008 53.5759 47.332 55.3916 46.0118 56.9392C44.6915 58.4868 43.0512 59.7296 41.204 60.5817C39.3568 61.4339 37.3468 61.8751 35.3125 61.875C34.8981 61.875 34.5007 61.7104 34.2076 61.4174C33.9146 61.1243 33.75 60.7269 33.75 60.3125V51.7062C31.7248 50.107 29.8943 48.2758 28.2958 46.25H19.6875C19.2731 46.25 18.8757 46.0854 18.5826 45.7924C18.2896 45.4993 18.125 45.1019 18.125 44.6875C18.1248 42.653 18.5661 40.6427 19.4184 38.7954C20.2706 36.948 21.5136 35.3076 23.0615 33.9873C24.6093 32.667 26.4253 31.6983 28.3839 31.148C30.3425 30.5977 32.3973 30.479 34.4062 30.8ZM46.25 29.0625C45.0068 29.0625 43.8145 29.5564 42.9354 30.4354C42.0564 31.3145 41.5625 32.5068 41.5625 33.75C41.5625 34.9932 42.0564 36.1855 42.9354 37.0646C43.8145 37.9436 45.0068 38.4375 46.25 38.4375C47.4932 38.4375 48.6855 37.9436 49.5646 37.0646C50.4436 36.1855 50.9375 34.9932 50.9375 33.75C50.9375 32.5068 50.4436 31.3145 49.5646 30.4354C48.6855 29.5564 47.4932 29.0625 46.25 29.0625ZM26.3668 50.4679C26.2617 50.6442 26.1229 50.7981 25.9583 50.9208C24.0458 52.3479 22.8125 54.625 22.8125 57.1875C24.0301 57.1886 25.2311 56.9047 26.3193 56.3585C27.4074 55.8122 28.3526 55.0188 29.0792 54.0417C29.2005 53.8735 29.354 53.7312 29.5308 53.623C29.7077 53.5148 29.9043 53.4429 30.1092 53.4114C30.3141 53.38 30.5232 53.3896 30.7244 53.4397C30.9255 53.4899 31.1147 53.5796 31.2808 53.7036C31.447 53.8276 31.5868 53.9834 31.6921 54.1619C31.7975 54.3405 31.8662 54.5382 31.8944 54.7436C31.9225 54.949 31.9095 55.158 31.8561 55.3583C31.8027 55.5586 31.71 55.7463 31.5833 55.9104C30.3948 57.5089 28.7917 58.752 26.9476 59.5052C25.1035 60.2583 23.0886 60.4928 21.1208 60.1833C20.7933 60.1319 20.4906 59.9776 20.2565 59.7428C20.0224 59.508 19.8691 59.2048 19.8188 58.8771C19.509 56.9095 19.7432 54.8947 20.496 53.0506C21.2488 51.2065 22.4914 49.6034 24.0896 48.4146C24.2541 48.2919 24.4413 48.2028 24.6403 48.1524C24.8393 48.102 25.0462 48.0913 25.2493 48.1209C25.4525 48.1505 25.6478 48.2198 25.8241 48.3249C26.0005 48.43 26.1544 48.5688 26.2771 48.7333C26.3998 48.8979 26.4889 49.085 26.5393 49.284C26.5897 49.483 26.6004 49.69 26.5708 49.8931C26.5412 50.0962 26.4718 50.2915 26.3668 50.4679Z" fill="white" fillOpacity="0.7"/>
</svg>
