<svg width="80" height="80" viewBox="0 0 80 80" fill="none" xmlns="http://www.w3.org/2000/svg">
<path fillRule="evenodd" clipRule="evenodd" d="M40 80C62.0914 80 80 62.0914 80 40C80 17.9086 62.0914 0 40 0C17.9086 0 0 17.9086 0 40C0 62.0914 17.9086 80 40 80ZM35.3322 16.6367C33.8668 17.3049 32.5624 18.2806 31.5075 19.4975C29.9012 19.3831 28.289 19.6158 26.7806 20.1795C25.2721 20.7433 23.9026 21.6251 22.765 22.765C21.6251 23.9026 20.7433 25.2721 20.1795 26.7806C19.6158 28.289 19.3831 29.9012 19.4975 31.5075C17.125 33.5675 15.625 36.6075 15.625 40C15.6232 41.6103 15.9678 43.2022 16.6356 44.6675C17.3033 46.1329 18.2785 47.4374 19.495 48.4925C19.3804 50.0992 19.613 51.7118 20.1767 53.2207C20.7405 54.7296 21.6224 56.0996 22.7625 57.2375C23.9006 58.3773 25.2706 59.2588 26.7795 59.8221C28.2884 60.3855 29.9009 60.6175 31.5075 60.5025C32.5624 61.7194 33.8668 62.6951 35.3322 63.3633C36.7975 64.0315 38.3895 64.3765 40 64.375C41.6105 64.3765 43.2025 64.0315 44.6678 63.3633C46.1332 62.6951 47.4376 61.7194 48.4925 60.5025C50.0988 60.6167 51.7109 60.384 53.2194 59.8202C54.7278 59.2564 56.0973 58.3747 57.235 57.235C58.3748 56.0973 59.2564 54.7278 59.8202 53.2194C60.384 51.7109 60.6167 50.0988 60.5025 48.4925C61.7194 47.4376 62.6951 46.1332 63.3633 44.6678C64.0315 43.2025 64.3765 41.6105 64.375 40C64.3768 38.3897 64.0322 36.7978 63.3644 35.3325C62.6967 33.8671 61.7215 32.5626 60.505 31.5075C60.6192 29.9012 60.3865 28.2891 59.8227 26.7806C59.2589 25.2722 58.3773 23.9027 57.2375 22.765C56.0997 21.6248 54.7297 20.7428 53.2208 20.179C51.7119 19.6152 50.0992 19.3828 48.4925 19.4975C46.4325 17.125 43.3925 15.625 40 15.625C38.3895 15.6235 36.7975 15.9685 35.3322 16.6367ZM49.3442 34.7949C49.2835 35.0373 49.175 35.2651 49.025 35.465L39.65 48.59C39.4916 48.8113 39.287 48.9954 39.0503 49.1296C38.8136 49.2639 38.5506 49.345 38.2794 49.3673C38.0082 49.3897 37.7354 49.3528 37.48 49.2591C37.2245 49.1655 36.9925 49.0173 36.8 48.825L31.175 43.2C30.8438 42.8446 30.6635 42.3744 30.6721 41.8887C30.6806 41.4029 30.8774 40.9395 31.2209 40.5959C31.5645 40.2524 32.0279 40.0556 32.5137 40.0471C32.9994 40.0385 33.4696 40.2188 33.825 40.55L37.885 44.61L45.975 33.285C46.1155 33.0784 46.296 32.9019 46.5057 32.766C46.7154 32.6301 46.9502 32.5375 47.1962 32.4937C47.4422 32.4498 47.6945 32.4555 47.9383 32.5106C48.182 32.5656 48.4123 32.6688 48.6156 32.8141C48.8189 32.9594 48.9911 33.1439 49.1221 33.3567C49.2531 33.5696 49.3402 33.8064 49.3784 34.0534C49.4165 34.3004 49.4049 34.5525 49.3442 34.7949Z" fill="white" fillOpacity="0.7"/>
</svg>
