<svg width="80" height="80" viewBox="0 0 80 80" fill="none" xmlns="http://www.w3.org/2000/svg">
<path d="M33.6985 26.6503C34.6298 25.9119 35.7375 25.3744 36.9231 25.0339V36.5006C35.7528 36.1801 34.6571 35.6323 33.6985 34.8883C32.0821 33.6042 31.4585 32.0944 31.4585 30.7693C31.4585 29.4442 32.0821 27.9344 33.6985 26.6503ZM43.077 55.0237V43.438C44.5005 43.7868 45.8011 44.3734 46.8554 45.1652C48.6072 46.478 49.2308 47.9796 49.2308 49.2309C49.2308 50.4821 48.6072 51.9837 46.8554 53.2965C45.7246 54.1191 44.4395 54.7093 43.077 55.0237Z" fill="white" fillOpacity="0.7"/>
<path fillRule="evenodd" clipRule="evenodd" d="M40 0C17.9077 0 0 17.9077 0 40C0 62.0923 17.9077 80 40 80C62.0923 80 80 62.0923 80 40C80 17.9077 62.0923 0 40 0ZM43.0769 15.3846C43.0769 14.5686 42.7528 13.7859 42.1757 13.2089C41.5987 12.6319 40.8161 12.3077 40 12.3077C39.184 12.3077 38.4013 12.6319 37.8243 13.2089C37.2473 13.7859 36.9231 14.5686 36.9231 15.3846V18.7323C34.3502 19.1652 31.9253 20.2311 29.8667 21.8338C26.9456 24.1559 25.3046 27.3723 25.3046 30.7692C25.3046 34.1703 26.9456 37.3826 29.8708 39.7046C31.9303 41.3456 34.3918 42.359 36.9231 42.8062V55.0236C35.5603 54.7077 34.2752 54.1203 33.1446 53.2964L29.5385 50.5887C29.2152 50.3463 28.8474 50.1699 28.4559 50.0696C28.0645 49.9693 27.6572 49.9471 27.2572 50.0043C26.4493 50.1197 25.7204 50.5513 25.2308 51.2041C24.7411 51.8569 24.5309 52.6776 24.6463 53.4854C24.7617 54.2933 25.1933 55.0222 25.8462 55.5118L29.4523 58.2195C31.639 59.8605 34.2482 60.8656 36.9231 61.2964V64.6154C36.9231 65.4314 37.2473 66.2141 37.8243 66.7911C38.4013 67.3681 39.184 67.6923 40 67.6923C40.8161 67.6923 41.5987 67.3681 42.1757 66.7911C42.7528 66.2141 43.0769 65.4314 43.0769 64.6154V61.2923C45.7788 60.8863 48.3421 59.832 50.5477 58.2195C53.6041 55.9262 55.3846 52.7056 55.3846 49.2308C55.3846 45.7559 53.6041 42.5354 50.5477 40.2421C48.3426 38.6278 45.7792 37.5721 43.0769 37.1651V25.0421C44.2667 25.3785 45.3703 25.9159 46.3015 26.6544L48.0041 28.0082C48.6433 28.5158 49.458 28.7486 50.269 28.6556C51.0799 28.5625 51.8206 28.151 52.3282 27.5118C52.8358 26.8726 53.0686 26.0579 52.9756 25.2469C52.8825 24.436 52.471 23.6953 51.8318 23.1877L50.1292 21.8338C48.0713 20.2331 45.648 19.1688 43.0769 18.7364V15.3846Z" fill="white" fillOpacity="0.7"/>
</svg>
